<svg version="1" xmlns="http://www.w3.org/2000/svg" width="1200" height="1200" viewBox="0 0 900.000000 900.000000"><path d="M189 80.1c-1.9 1.2-10.9 6.5-20 11.7-30.7 17.7-61.4 35.4-74.5 43-7.1 4.1-18.7 10.8-25.7 14.8-7.1 4.1-18.8 10.8-26 15.1-7.3 4.2-17.3 9.9-22.3 12.8-15.6 9-16.5 9.7-18.5 13.6-2 3.7-2 6.6-2 113.9 0 117.3-.2 112.8 4.6 117.2 1.1.9 4.6 3.2 7.9 5.1 5.9 3.3 19.9 11.4 46 26.5 7.2 4.2 17.1 9.9 22 12.7 8.7 5 20.9 12.1 60.5 35 10.2 5.8 19.4 11.4 20.4 12.3 1 .9 2.7 3.5 3.7 5.7 1.8 3.8 1.9 8.8 1.9 93.8 0 96.5-.2 93.6 5.1 98.3 2.4 2.2 10.8 7.1 85.4 50.2 7.2 4.1 17.1 9.8 22 12.7 15.4 8.9 34.4 19.8 49.5 28.5 8 4.6 17.9 10.4 22 12.9 6.2 3.7 8.6 4.5 13.6 4.9 3.7.2 7.1-.1 8.5-.8 1.3-.7 36.8-21.1 78.8-45.3 69.8-40.2 76.8-44.1 81.1-44.1 5-.1 5.3.1 87.5 47.6 7.2 4.2 24.9 14.4 39.5 22.8 14.6 8.5 28.3 16.4 30.5 17.7 3 1.7 5.5 2.3 10 2.3h6l94-54.4c86.1-49.7 94.2-54.6 96.2-58.2l2.3-3.9V594c0-107.9-.1-110.6-2-113.7-1-1.8-3.6-4.3-5.7-5.7-2.1-1.3-37.1-21.6-77.8-45.1-40.7-23.5-74.9-43.4-75.9-44.3-1-.9-2.7-3.5-3.7-5.7-1.8-3.8-1.9-8.8-1.9-94.5 0-86.7-.1-90.6-1.9-93.6-1-1.7-3.1-4.1-4.7-5.3-1.6-1.3-43.8-26-93.9-54.9-89.2-51.5-91.1-52.5-97.2-53-7-.5-5.2-1.3-33.8 15.3-9.3 5.4-21 12.1-26 15-4.9 2.8-15.1 8.7-22.5 13-7.4 4.3-19.3 11.2-26.5 15.3-7.1 4.1-18.8 10.9-26 15-32.1 18.6-32.4 18.7-39.6 15.4-2.4-1.1-38.4-21.6-79.9-45.6L204.5 78h-6c-4.4 0-7 .6-9.5 2.1zm23 76.2c5.2 3 15.6 8.9 23 13.2 7.4 4.3 19.1 11 26 15 31.8 18.4 35.9 20.9 36.5 22.2.3.8.1 2.2-.4 3.1-.5.9-11.4 7.7-24.3 15.1-12.8 7.4-30.3 17.5-38.8 22.5-8.5 4.9-18.6 10.7-22.5 12.9-4.9 2.8-8.5 4.2-12.1 4.5l-5.1.4-44.9-25.9c-52.3-30.2-49.2-28.4-49.9-30.2-.8-2.1 1.1-3.8 11.4-9.8 5.3-3.1 13.7-7.9 18.6-10.8 27.5-16 61.9-35.7 63.8-36.5 5-2 9.1-1.1 18.7 4.3zm337 1.4c5.8 3.3 16.6 9.5 24 13.8 20.5 11.9 34.2 19.8 60.3 34.9 30 17.2 30.2 17.4 32.7 21.8 2 3.5 2 4.9 2 57.9 0 46.6-.2 54.5-1.4 55.8-1.2 1.1-2.1 1.2-3.8.4-1.3-.6-29.3-16.7-62.3-35.8-58.6-34-60.1-34.8-66.2-35.3l-6.3-.4-22.2 12.8c-25.1 14.4-37.7 21.7-62.3 35.9-9.3 5.4-22.6 13-29.5 17-6.9 4-17 9.8-22.5 13-5.5 3.2-15.7 9.1-22.7 13.2-14.7 8.4-33 18.9-52 30-7.3 4.2-21.6 12.4-31.8 18.3-10.2 5.8-26.1 15.1-35.5 20.5-26.3 15.2-35.6 20.6-41 23.6-3.6 2.1-6.4 2.9-9.9 2.9-4.5 0-7.8-1.7-52-27.2-25.9-14.9-53.2-30.7-60.6-34.9-16.6-9.6-18.8-11.2-21.1-16.3-1.7-3.8-1.9-7.7-1.9-56.4 0-34.2.4-53 1-54.3 2.1-3.9 1.4-4.2 53.5 25.9 7.2 4.2 17.1 9.9 22 12.7 5 2.9 16.7 9.6 26 15.1 26.9 15.6 29.2 16.7 34.7 16 4.7-.5 14.1-5.7 105.3-58.6 12.1-7 49.9-28.8 84-48.5s66.1-38.1 71-41c13.2-7.7 60.3-34.9 65-37.4 6.3-3.5 11.1-2.5 23.5 4.6zm-3.5 191c3.9 2.2 13.1 7.5 20.5 11.8 7.4 4.3 23.6 13.7 35.9 20.8 30.5 17.6 30.3 17.4 29.9 20-.4 2.5-3.6 4.8-21.3 14.9-37.1 21.3-54.8 31.5-62.5 36.1-6.9 4.2-9.5 5.2-14 5.5l-5.5.3-45.5-26.2c-25-14.4-46.3-26.9-47.2-27.7-1-.8-1.8-2.3-1.8-3.3 0-1.9 4.6-4.8 44-27.4 56.5-32.5 51.1-29.7 56-29.2 2.8.2 7.1 1.8 11.5 4.4zm-169 95.5c3.9 2.4 34.7 20.2 68.5 39.6 18.6 10.6 20.2 11.8 19.8 14.6-.3 2-.9 2.4-32.8 20.8-9.1 5.3-25.3 14.6-36 20.9-25.6 14.8-26.5 15.2-31.4 14.7-3-.4-15.9-7.3-49.6-26.8-25-14.4-46.1-26.7-46.7-27.3-1.8-1.4-1.6-4.1.5-5.9 1.3-1.2 79.2-46.6 90.2-52.5 3.9-2.1 12.7-1.2 17.5 1.9zm336 .9c3.9 2.3 11.5 6.7 17 9.9 5.5 3.1 15.9 9.1 23 13.2 7.2 4.1 27.2 15.7 44.5 25.7 17.3 10.1 32.4 19 33.4 19.9 1 .9 2.7 3.5 3.7 5.7 1.7 3.7 1.9 7.7 1.9 56.7 0 51.7 0 52.8-2 54.8-1.7 1.7-2.4 1.9-4.3.9-1.2-.7-28.3-16.3-60.2-34.7-31.9-18.5-60-34.4-62.4-35.5-5.8-2.6-11.6-1.7-19 2.7-3.1 1.9-15.9 9.3-28.6 16.6-12.6 7.3-28.7 16.6-35.7 20.6-7.1 4.1-18.5 10.7-25.5 14.8-7.1 4-23.1 13.3-35.8 20.6-12.6 7.3-28.6 16.5-35.5 20.5-6.9 3.9-18.6 10.7-26 15-7.4 4.3-19.1 11-26 15-46.9 27.1-78.6 45.4-94 54.4-8.3 4.8-10.2 5.5-15 5.5-5.4.1-6.3-.3-61.5-32.3-30.8-17.8-59.2-34.3-63.1-36.7-11.2-6.9-10.5-2.4-10.2-66.3.3-48.7.5-54.5 1.9-55.4 1.7-1.1 4.2.2 32.4 16.6 17.5 10.2 28.3 16.4 44 25.5 7.7 4.4 21.9 12.6 31.5 18.3 16.6 9.7 17.8 10.3 24 10.6l6.5.4L422 599c27.8-16.1 57.7-33.4 66.5-38.5 19-11 97.6-56.4 130-75 12.7-7.3 35.2-20.3 50-28.9 25-14.4 27.4-15.6 32-15.6 4.1 0 6.3.8 12 4.1zm3.5 195.1c5.2 3 15.6 9 23 13.3 27.2 15.8 37.7 21.8 48.3 27.8 12.5 7.1 14 8.9 10.6 12.2-1.3 1.2-13.2 8.4-26.4 16s-33.4 19.2-44.9 25.8c-16.5 9.5-21.8 12.1-25.5 12.4-5.1.5.5 3.5-73.3-39.2-25.6-14.7-28.7-17.1-25.7-20 .8-.7 8.6-5.5 17.4-10.5 8.8-5.1 26.4-15.2 39-22.5 12.7-7.3 26.2-15.1 30-17.4 6.4-3.8 7.5-4.1 12.5-3.8 4.4.3 7.3 1.5 15 5.9z"/></svg>